<svg width="18" height="18" viewBox="0 0 18 18" fill="none" xmlns="http://www.w3.org/2000/svg">
<path d="M14.9571 7.45711C15.3476 7.06658 15.3476 6.43342 14.9571 6.04289C14.5666 5.65237 13.9334 5.65237 13.5429 6.04289L14.9571 7.45711ZM9 12L8.29289 12.7071C8.68342 13.0976 9.31658 13.0976 9.70711 12.7071L9 12ZM4.45711 6.04289C4.06658 5.65237 3.43342 5.65237 3.04289 6.04289C2.65237 6.43342 2.65237 7.06658 3.04289 7.45711L4.45711 6.04289ZM13.5429 6.04289L8.29289 11.2929L9.70711 12.7071L14.9571 7.45711L13.5429 6.04289ZM9.70711 11.2929L4.45711 6.04289L3.04289 7.45711L8.29289 12.7071L9.70711 11.2929Z" fill="#1A1A1A"/>
</svg>
