<svg width="20" height="20" viewBox="0 0 20 20" fill="none" xmlns="http://www.w3.org/2000/svg">
<path d="M15.5248 5.95833C15.5582 6.46666 15.5165 7.04166 15.4165 7.68333L14.8082 11.5917C14.2915 14.85 12.7832 15.95 9.52483 15.4417L5.6165 14.825C4.4915 14.65 3.62483 14.35 2.9915 13.9C1.78316 13.0583 1.43316 11.675 1.7665 9.54166L2.38316 5.63333C2.89983 2.375 4.40816 1.275 7.6665 1.78333L11.5748 2.4C14.1915 2.80833 15.4165 3.875 15.5248 5.95833Z" stroke="#999999" stroke-width="1.5" stroke-linecap="round" stroke-linejoin="round"/>
<path d="M17.0834 11.225L15.8334 14.9833C14.7917 18.1167 13.125 18.95 9.9917 17.9083L6.23337 16.6583C4.3417 16.0333 3.2917 15.1667 2.9917 13.9C3.62503 14.35 4.4917 14.65 5.6167 14.825L9.52503 15.4417C12.7834 15.95 14.2917 14.85 14.8084 11.5917L15.4167 7.68333C15.5167 7.04166 15.5584 6.46666 15.525 5.95833C17.5167 7.01666 17.95 8.61666 17.0834 11.225Z" stroke="#999999" stroke-width="1.5" stroke-linecap="round" stroke-linejoin="round"/>
<path d="M6.8665 7.48333C7.66732 7.48333 8.3165 6.83414 8.3165 6.03333C8.3165 5.23252 7.66732 4.58333 6.8665 4.58333C6.06569 4.58333 5.4165 5.23252 5.4165 6.03333C5.4165 6.83414 6.06569 7.48333 6.8665 7.48333Z" stroke="#999999" stroke-width="1.5" stroke-linecap="round" stroke-linejoin="round"/>
</svg>
