<svg width="20" height="20" viewBox="0 0 20 20" fill="none" xmlns="http://www.w3.org/2000/svg">
<path d="M8.3335 12.5L8.3335 10" stroke="#1A1A1A" stroke-width="1.2" stroke-linecap="round"/>
<path d="M11.6665 12.5L11.6665 10" stroke="#1A1A1A" stroke-width="1.2" stroke-linecap="round"/>
<path d="M2.5 5.83398H17.5C17.0353 5.83398 16.803 5.83398 16.6098 5.87241C15.8164 6.03023 15.1962 6.65042 15.0384 7.4438C15 7.637 15 7.86933 15 8.33398V12.6673C15 14.5529 15 15.4957 14.4142 16.0815C13.8284 16.6673 12.8856 16.6673 11 16.6673H9C7.11438 16.6673 6.17157 16.6673 5.58579 16.0815C5 15.4957 5 14.5529 5 12.6673V8.33398C5 7.86933 5 7.637 4.96157 7.4438C4.80376 6.65042 4.18356 6.03023 3.39018 5.87241C3.19698 5.83398 2.96466 5.83398 2.5 5.83398Z" fill="#7E869E" fill-opacity="0.25"/>
<path d="M16.6098 5.87241L16.4928 5.28394L16.6098 5.87241ZM15.0384 7.4438L15.6269 7.56086L15.0384 7.4438ZM4.96157 7.4438L5.55004 7.32675L4.96157 7.4438ZM5.58579 16.0815L5.16152 16.5058L5.58579 16.0815ZM14.4142 16.0815L14.8385 16.5058L14.4142 16.0815ZM2.5 6.43398H17.5V5.23398H2.5V6.43398ZM11 16.0673H9V17.2673H11V16.0673ZM5.6 12.6673V8.33398H4.4V12.6673H5.6ZM14.4 8.33398V12.6673H15.6V8.33398H14.4ZM17.5 5.23398C17.0641 5.23398 16.7585 5.23108 16.4928 5.28394L16.7269 6.46088C16.8475 6.43689 17.0066 6.43398 17.5 6.43398V5.23398ZM15.6 8.33398C15.6 7.84057 15.6029 7.68149 15.6269 7.56086L14.45 7.32675C14.3971 7.59252 14.4 7.89809 14.4 8.33398H15.6ZM16.4928 5.28394C15.4614 5.4891 14.6551 6.29535 14.45 7.32675L15.6269 7.56086C15.7374 7.00549 16.1715 6.57135 16.7269 6.46088L16.4928 5.28394ZM5.6 8.33398C5.6 7.89809 5.60291 7.59252 5.55004 7.32675L4.3731 7.56086C4.39709 7.68149 4.4 7.84057 4.4 8.33398H5.6ZM2.5 6.43398C2.99341 6.43398 3.1525 6.43689 3.27313 6.46088L3.50723 5.28394C3.24147 5.23108 2.9359 5.23398 2.5 5.23398V6.43398ZM5.55004 7.32675C5.34488 6.29535 4.53863 5.4891 3.50723 5.28394L3.27313 6.46088C3.82849 6.57135 4.26263 7.00549 4.3731 7.56086L5.55004 7.32675ZM9 16.0673C8.04023 16.0673 7.38076 16.066 6.8854 15.9994C6.40731 15.9352 6.17288 15.8201 6.01005 15.6573L5.16152 16.5058C5.58448 16.9288 6.11435 17.1066 6.72551 17.1887C7.31941 17.2686 8.07415 17.2673 9 17.2673V16.0673ZM4.4 12.6673C4.4 13.5932 4.39873 14.3479 4.47857 14.9418C4.56074 15.553 4.73857 16.0828 5.16152 16.5058L6.01005 15.6573C5.84722 15.4944 5.73215 15.26 5.66787 14.7819C5.60127 14.2866 5.6 13.6271 5.6 12.6673H4.4ZM11 17.2673C11.9258 17.2673 12.6806 17.2686 13.2745 17.1887C13.8857 17.1066 14.4155 16.9288 14.8385 16.5058L13.9899 15.6573C13.8271 15.8201 13.5927 15.9352 13.1146 15.9994C12.6192 16.066 11.9598 16.0673 11 16.0673V17.2673ZM14.4 12.6673C14.4 13.6271 14.3987 14.2866 14.3321 14.7819C14.2678 15.26 14.1528 15.4944 13.9899 15.6573L14.8385 16.5058C15.2614 16.0828 15.4393 15.553 15.5214 14.9418C15.6013 14.3479 15.6 13.5932 15.6 12.6673H14.4Z" fill="#1A1A1A"/>
<path d="M8.38996 2.80883C8.48492 2.72023 8.69416 2.64194 8.98523 2.5861C9.27631 2.53027 9.63295 2.5 9.99984 2.5C10.3667 2.5 10.7234 2.53027 11.0144 2.5861C11.3055 2.64194 11.5148 2.72023 11.6097 2.80883" stroke="#1A1A1A" stroke-width="1.2" stroke-linecap="round"/>
</svg>
