<svg width="122" height="25" viewBox="0 0 122 25" fill="none" xmlns="http://www.w3.org/2000/svg">
<path d="M21.247 18.5369V0.102142H10.3511V24.9993H20.0893H21.247H31.2916V18.5369H21.247Z" fill="#BCBEC0"/>
<path d="M59.519 15.8499C56.761 15.5438 55.7054 14.2173 55.7054 14.2173C54.2413 12.2106 55.8757 10.3059 55.8757 10.3059C58.4634 7.58489 65.6479 10.68 65.6479 10.68C65.6479 10.68 70.517 3.12925 70.4489 3.06123C65.5117 -0.850215 56.2843 0.102137 56.2843 0.102137C45.3203 0.8164 45.3543 10.8501 45.3543 10.8501C45.2522 25.3394 59.519 24.9993 59.519 24.9993H61.562H70.4489V11.2923H59.519V15.8499Z" fill="#BCBEC0"/>
<path d="M38.3059 9.31953C35.7181 9.31953 33.5389 7.58489 32.8579 5.20401V24.9653H43.7879V5.20401C43.0728 7.58489 40.8936 9.31953 38.3059 9.31953Z" fill="#BCBEC0"/>
<path d="M38.3059 7.38082C40.2805 7.38082 41.8811 5.78189 41.8811 3.80951C41.8811 1.83712 40.2805 0.23819 38.3059 0.23819C36.3314 0.23819 34.7307 1.83712 34.7307 3.80951C34.7307 5.78189 36.3314 7.38082 38.3059 7.38082Z" fill="#FAD704"/>
<path d="M100.719 0.102142V11.0882H105.895V24.9993H116.824V11.0882H122V0.102142H100.719Z" fill="#BCBEC0"/>
<path d="M88.2228 0.102142V9.2175H82.9451V0.102142H72.0151V24.9993H75.2839H82.9451V16.054H88.2228V24.9993H99.1527V0.102142H88.2228Z" fill="#BCBEC0"/>
<path d="M0 24.9993H3.74546V23.2307H8.44432V19.5233H3.74546V17.7887H0V24.9993Z" fill="#FAD704"/>
<path d="M0 11.6664H3.09852V13.4691H0V17.1424H8.44432V16.054V13.4691H5.4139V11.6664H8.44432V7.95905H0V11.6664Z" fill="#FAD704"/>
<path d="M2.17918 0.102142H0V3.5034V3.91155V7.21076H8.44432V3.91155V3.5034V0.102142H6.26514V3.5034H5.2096V2.07487H3.03042V3.5034H2.17918V0.102142Z" fill="#FAD704"/>
<path opacity="0.5" d="M63.7749 10.0338C64.6942 10.3399 65.3752 10.612 65.5795 10.68H65.6476L66.0562 10.0338H63.7749Z" fill="white"/>
<path opacity="0.5" d="M70.4487 11.2923H59.5188V11.9385H70.4487V11.2923Z" fill="white"/>
<path opacity="0.5" d="M70.4487 12.5847H59.5188V13.231H70.4487V12.5847Z" fill="white"/>
<path opacity="0.5" d="M70.4487 15.2037H59.5188V15.85H70.4487V15.2037Z" fill="white"/>
<path opacity="0.5" d="M70.4487 13.8772H59.5188V14.5575H70.4487V13.8772Z" fill="white"/>
<path opacity="0.5" d="M55.2285 13.231C55.1604 12.9929 55.1263 12.7888 55.1263 12.5847H47.2949L47.7716 13.231H55.2285Z" fill="white"/>
<path opacity="0.5" d="M56.0797 14.5575C55.8414 14.3534 55.7052 14.2174 55.7052 14.2174C55.6371 14.1153 55.569 14.0133 55.5009 13.8772H48.2483L48.759 14.5575H56.0797Z" fill="white"/>
<path opacity="0.5" d="M59.5187 15.85C58.4972 15.7479 57.7141 15.4758 57.1353 15.2037H49.2698L49.7465 15.85H59.5187Z" fill="white"/>
<path opacity="0.5" d="M45.6264 8.74133C45.5924 8.97942 45.5243 9.18349 45.4902 9.38757H57.5438C58.6334 9.11547 59.9273 9.18349 61.119 9.38757H66.4308L66.8394 8.74133H45.6264Z" fill="white"/>
<path opacity="0.5" d="M70.4487 17.1424V16.4962H50.2231L50.7339 17.1424H70.4487Z" fill="white"/>
<path opacity="0.5" d="M55.1605 11.9385C55.1946 11.7004 55.2627 11.4963 55.3308 11.2923H46.3076L46.7843 11.9385H55.1605Z" fill="white"/>
<path opacity="0.5" d="M99.1527 15.2037H72.0151V15.85H99.1527V15.2037Z" fill="white"/>
<path opacity="0.5" d="M70.4488 18.4349V17.7887H51.2107L51.6874 18.4349H70.4488Z" fill="white"/>
<path opacity="0.5" d="M82.9451 19.0811H72.0151V19.7274H82.9451V19.0811Z" fill="white"/>
<path opacity="0.5" d="M82.9451 16.4962H72.0151V17.1424H82.9451V16.4962Z" fill="white"/>
<path opacity="0.5" d="M55.8755 10.3059C55.9776 10.2039 56.0798 10.1018 56.1819 10.0338H45.3882C45.3882 10.0678 45.3882 10.1358 45.3882 10.1699L45.7627 10.68H55.6031C55.7733 10.442 55.8755 10.3059 55.8755 10.3059Z" fill="white"/>
<path opacity="0.5" d="M82.9451 17.7887H72.0151V18.4349H82.9451V17.7887Z" fill="white"/>
<path opacity="0.5" d="M105.894 17.1424H116.824V16.6322L116.075 16.4962H105.894V17.1424Z" fill="white"/>
<path opacity="0.5" d="M51.8915 4.21767L48.2822 3.53741C48.0779 3.7755 47.8736 3.97958 47.7034 4.21767H51.8915Z" fill="white"/>
<path opacity="0.5" d="M82.9451 21.6661H72.0151V22.3123H82.9451V21.6661Z" fill="white"/>
<path opacity="0.5" d="M99.1526 19.0811H88.1545V19.7274H99.1526V19.0811Z" fill="white"/>
<path opacity="0.5" d="M82.9451 20.3736H72.0151V21.0199H82.9451V20.3736Z" fill="white"/>
<path opacity="0.5" d="M99.1526 17.7887H88.1545V18.4349H99.1526V17.7887Z" fill="white"/>
<path opacity="0.5" d="M99.1526 16.4962H88.1545V17.1424H99.1526V16.4962Z" fill="white"/>
<path opacity="0.5" d="M99.1526 20.3736H88.1545V21.0199H99.1526V20.3736Z" fill="white"/>
<path opacity="0.5" d="M99.1526 21.6661H88.1545V22.3123H99.1526V21.6661Z" fill="white"/>
<path opacity="0.5" d="M72.0151 8.74133V9.38757H78.8591L75.4882 8.74133H72.0151Z" fill="white"/>
<path opacity="0.5" d="M45.7969 8.09512H67.3163L67.7249 7.44888H46.0012C45.9331 7.65296 45.865 7.85703 45.7969 8.09512Z" fill="white"/>
<path opacity="0.5" d="M99.1527 13.8772H72.0151V14.5575H99.1527V13.8772Z" fill="white"/>
<path opacity="0.5" d="M72.0151 10.0338V10.646H85.5669L82.23 10.0338H72.0151Z" fill="white"/>
<path opacity="0.5" d="M72.0151 12.5847V13.231H99.0506L95.6797 12.5847H72.0151Z" fill="white"/>
<path opacity="0.5" d="M72.0151 11.2923V11.9385H92.3087L88.9378 11.2923H72.0151Z" fill="white"/>
<path opacity="0.5" d="M72.0151 8.09496H72.1167L72.0151 8.0611V8.09496Z" fill="white"/>
<path opacity="0.5" d="M99.1526 24.217H88.1545V24.9653H99.1526V24.217Z" fill="white"/>
<path opacity="0.5" d="M116.824 24.217H105.894V24.9653H116.824V24.217Z" fill="white"/>
<path opacity="0.5" d="M82.9451 24.217H72.0151V24.9653H82.9451V24.217Z" fill="white"/>
<path opacity="0.5" d="M56.1138 24.217L56.4543 24.6592C56.965 24.7612 58.1567 24.9653 60.0976 24.9653H70.4487V24.217H56.1138V24.217Z" fill="white"/>
<path opacity="0.5" d="M46.5119 6.15637C46.4098 6.36045 46.3076 6.59854 46.2395 6.80261H65.3754L62.0045 6.15637H46.5119Z" fill="white"/>
<path opacity="0.5" d="M47.2268 4.86392C47.0906 5.068 46.9544 5.30609 46.8523 5.51016H58.6335L55.2626 4.86392H47.2268Z" fill="white"/>
<path opacity="0.5" d="M99.1526 22.9586H88.1545V23.6048H99.1526V22.9586Z" fill="white"/>
<path opacity="0.5" d="M82.9451 22.9586H72.0151V23.6048H82.9451V22.9586Z" fill="white"/>
<path opacity="0.5" d="M70.4486 23.5708V22.9586H55.1262L55.6029 23.5708H70.4486Z" fill="white"/>
<path opacity="0.5" d="M70.4486 19.7274V19.0811H52.198L52.6747 19.7274H70.4486Z" fill="white"/>
<path opacity="0.5" d="M116.824 22.9586H105.894V23.6048H116.824V22.9586Z" fill="white"/>
<path opacity="0.5" d="M70.4487 22.3123V21.6661H54.1389L54.6497 22.3123H70.4487Z" fill="white"/>
<path opacity="0.5" d="M70.4486 21.0199V20.3736H53.1514L53.6621 21.0199H70.4486Z" fill="white"/>
<path opacity="0.5" d="M116.824 17.7887H105.894V18.4349H116.824V17.7887Z" fill="white"/>
<path opacity="0.5" d="M105.894 15.2037V15.85H112.704L109.333 15.2037H105.894Z" fill="white"/>
<path opacity="0.5" d="M116.824 21.6661H105.894V22.3123H116.824V21.6661Z" fill="white"/>
<path opacity="0.5" d="M116.824 20.3736H105.894V21.0199H116.824V20.3736Z" fill="white"/>
<path opacity="0.5" d="M116.824 19.0811H105.894V19.7274H116.824V19.0811Z" fill="white"/>
</svg>
