<svg width="20" height="20" viewBox="0 0 20 20" fill="none" xmlns="http://www.w3.org/2000/svg">
<path d="M5 11.666H5.56287C5.92989 11.666 6.11339 11.666 6.27174 11.7206C6.45751 11.7846 6.6203 11.9019 6.73978 12.0579C6.84163 12.1909 6.89966 12.365 7.01572 12.7132L7.01572 12.7132L7.08333 12.916L7.08334 12.916C7.26493 13.4608 7.35572 13.7332 7.55249 13.9099C7.60578 13.9578 7.66407 13.9998 7.72634 14.0352C7.95626 14.166 8.24338 14.166 8.81762 14.166H11.1824C11.7566 14.166 12.0437 14.166 12.2737 14.0352C12.3359 13.9998 12.3942 13.9578 12.4475 13.9099C12.6443 13.7332 12.7351 13.4608 12.9167 12.916L12.9843 12.7132C13.1003 12.365 13.1584 12.1909 13.2602 12.0579C13.3797 11.9019 13.5425 11.7846 13.7283 11.7206C13.8866 11.666 14.0701 11.666 14.4371 11.666H15C15.4647 11.666 15.697 11.666 15.8902 11.6276C16.6836 11.4698 17.3038 10.8496 17.4616 10.0562C17.5 9.863 17.5 9.63067 17.5 9.16602V13.4993C17.5 15.385 17.5 16.3278 16.9142 16.9136C16.3284 17.4993 15.3856 17.4993 13.5 17.4993H6.5C4.61438 17.4993 3.67157 17.4993 3.08579 16.9136C2.5 16.3278 2.5 15.385 2.5 13.4993V9.16602C2.5 9.63067 2.5 9.863 2.53843 10.0562C2.69624 10.8496 3.31644 11.4698 4.10982 11.6276C4.30302 11.666 4.53535 11.666 5 11.666Z" fill="#7E869E" fill-opacity="0.25"/>
<path d="M12.9167 12.916L12.3475 12.7263L12.9167 12.916ZM12.4475 13.9099L12.0465 13.4636L12.4475 13.9099ZM12.2737 14.0352L11.977 13.5137L12.2737 14.0352ZM7.55249 13.9099L7.95345 13.4636L7.55249 13.9099ZM7.72634 14.0352L7.42969 14.5568L7.72634 14.0352ZM6.27174 11.7206L6.07624 12.2878L6.27174 11.7206ZM7.01572 12.7132L6.44651 12.9029L7.01572 12.7132ZM6.73978 12.0579L7.2161 11.6931L6.73978 12.0579ZM13.7283 11.7206L13.5328 11.1533L13.7283 11.7206ZM13.2602 12.0579L13.7365 12.4228L13.2602 12.0579ZM17.4616 10.0562L16.8731 9.93914L17.4616 10.0562ZM15.8902 11.6276L16.0072 12.2161L15.8902 11.6276ZM5.56287 11.066H5V12.266H5.56287V11.066ZM15 11.066H14.4371V12.266H15V11.066ZM7.65254 12.7263L7.58493 12.5234L6.44651 12.9029L6.51412 13.1058L7.65254 12.7263ZM12.4151 12.5234L12.3475 12.7263L13.4859 13.1058L13.5535 12.9029L12.4151 12.5234ZM11.1824 13.566H8.81762V14.766H11.1824V13.566ZM12.3475 12.7263C12.2531 13.0094 12.1949 13.1821 12.139 13.3083C12.0879 13.424 12.0585 13.4529 12.0465 13.4636L12.8485 14.3563C13.0333 14.1903 13.1477 13.9945 13.2365 13.7936C13.3207 13.6033 13.3987 13.3674 13.4859 13.1058L12.3475 12.7263ZM11.1824 14.766C11.4582 14.766 11.7067 14.7666 11.9138 14.747C12.1325 14.7262 12.3544 14.6796 12.5703 14.5568L11.977 13.5137C11.963 13.5216 11.9264 13.5404 11.8005 13.5524C11.663 13.5654 11.4808 13.566 11.1824 13.566V14.766ZM12.0465 13.4636C12.0252 13.4827 12.0019 13.4995 11.977 13.5137L12.5703 14.5568C12.6699 14.5001 12.7632 14.4329 12.8485 14.3563L12.0465 13.4636ZM6.51412 13.1058C6.60134 13.3674 6.67932 13.6033 6.76347 13.7936C6.8523 13.9945 6.9667 14.1903 7.15153 14.3563L7.95345 13.4636C7.94151 13.4529 7.91213 13.424 7.86096 13.3083C7.80513 13.1821 7.74692 13.0094 7.65254 12.7263L6.51412 13.1058ZM8.81762 13.566C8.51917 13.566 8.33697 13.5654 8.19953 13.5524C8.07357 13.5404 8.03695 13.5216 8.02299 13.5137L7.42969 14.5568C7.64565 14.6796 7.86754 14.7262 8.08619 14.747C8.29334 14.7666 8.54182 14.766 8.81762 14.766V13.566ZM7.15153 14.3563C7.2368 14.4329 7.33006 14.5001 7.42969 14.5568L8.02299 13.5137C7.99808 13.4995 7.97477 13.4827 7.95345 13.4636L7.15153 14.3563ZM5 11.066C4.50659 11.066 4.3475 11.0631 4.22687 11.0391L3.99277 12.2161C4.25853 12.2689 4.5641 12.266 5 12.266V11.066ZM1.9 9.16602C1.9 9.60191 1.89709 9.90748 1.94996 10.1732L3.1269 9.93914C3.10291 9.81851 3.1 9.65943 3.1 9.16602H1.9ZM4.22687 11.0391C3.67151 10.9286 3.23737 10.4945 3.1269 9.93914L1.94996 10.1732C2.15512 11.2046 2.96137 12.0109 3.99277 12.2161L4.22687 11.0391ZM5.56287 12.266C5.97487 12.266 6.03591 12.2739 6.07624 12.2878L6.46724 11.1533C6.19087 11.0581 5.8849 11.066 5.56287 11.066V12.266ZM7.58493 12.5234C7.48309 12.2179 7.39386 11.9251 7.2161 11.6931L6.26346 12.4228C6.28939 12.4566 6.31622 12.512 6.44651 12.9029L7.58493 12.5234ZM6.07624 12.2878C6.15055 12.3135 6.21566 12.3604 6.26346 12.4228L7.2161 11.6931C7.02493 11.4435 6.76447 11.2558 6.46724 11.1533L6.07624 12.2878ZM14.4371 11.066C14.1151 11.066 13.8091 11.0581 13.5328 11.1533L13.9238 12.2878C13.9641 12.2739 14.0251 12.266 14.4371 12.266V11.066ZM13.5535 12.9029C13.6838 12.512 13.7106 12.4566 13.7365 12.4228L12.7839 11.6931C12.6061 11.9251 12.5169 12.2179 12.4151 12.5234L13.5535 12.9029ZM13.5328 11.1533C13.2355 11.2558 12.9751 11.4435 12.7839 11.6931L13.7365 12.4228C13.7843 12.3604 13.8495 12.3135 13.9238 12.2878L13.5328 11.1533ZM16.9 9.16602C16.9 9.65943 16.8971 9.81851 16.8731 9.93914L18.05 10.1732C18.1029 9.90748 18.1 9.60191 18.1 9.16602H16.9ZM15 12.266C15.4359 12.266 15.7415 12.2689 16.0072 12.2161L15.7731 11.0391C15.6525 11.0631 15.4934 11.066 15 11.066V12.266ZM16.8731 9.93914C16.7626 10.4945 16.3285 10.9286 15.7731 11.0391L16.0072 12.2161C17.0386 12.0109 17.8449 11.2046 18.05 10.1732L16.8731 9.93914Z" fill="#1A1A1A"/>
<path d="M6.66675 7.5L10.0001 10M10.0001 10L13.3334 7.5M10.0001 10L10.0001 1.66667" stroke="#1A1A1A" stroke-width="1.2"/>
<path d="M13.3333 4.16602H13.5C15.3856 4.16602 16.3284 4.16602 16.9142 4.7518C17.5 5.33759 17.5 6.2804 17.5 8.16602V13.4994C17.5 15.385 17.5 16.3278 16.9142 16.9136C16.3284 17.4993 15.3856 17.4993 13.5 17.4993H6.5C4.61438 17.4993 3.67157 17.4993 3.08579 16.9136C2.5 16.3278 2.5 15.385 2.5 13.4993V8.16601C2.5 6.2804 2.5 5.33759 3.08579 4.7518C3.67157 4.16602 4.61438 4.16602 6.5 4.16602H6.66667" stroke="#1A1A1A" stroke-width="1.2"/>
</svg>
