<svg width="24" height="24" viewBox="0 0 24 24" fill="none" xmlns="http://www.w3.org/2000/svg">
<path fill-rule="evenodd" clip-rule="evenodd" d="M3.87868 3.87868C3 4.75736 3 6.17157 3 9V15C3 17.8284 3 19.2426 3.87868 20.1213C4.52055 20.7632 5.44818 20.9362 7.0041 20.9828C7 20.687 7 20.3607 7 20V19C7 17.1144 7 16.1716 7.58579 15.5858C8.17157 15 9.11438 15 11 15H12C13.8856 15 14.8284 15 15.4142 15.5858C16 16.1716 16 17.1144 16 19V20C16 20.367 16 20.6984 15.9957 20.9983C18.1735 20.9863 19.3524 20.8902 20.1213 20.1213C21 19.2426 21 17.8284 21 15V7.82843C21 7.41968 21 7.2153 20.9239 7.03153C20.8478 6.84776 20.7032 6.70325 20.4142 6.41423L20.4142 6.41421L17.5858 3.58579C17.2968 3.29676 17.1522 3.15224 16.9685 3.07612C16.7847 3 16.5803 3 16.1716 3H9C6.17157 3 4.75736 3 3.87868 3.87868Z" fill="#7E869E" fill-opacity="0.25"/>
<path d="M16 21V19C16 17.1144 16 16.1716 15.4142 15.5858C14.8284 15 13.8856 15 12 15H11C9.11438 15 8.17157 15 7.58579 15.5858C7 16.1716 7 17.1144 7 19V21" stroke="#1A1A1A" stroke-width="1.2"/>
<path d="M7 8H12" stroke="#1A1A1A" stroke-width="1.2" stroke-linecap="round"/>
<path d="M20.4142 6.41421L20.8385 5.98995L20.4142 6.41421ZM20.9239 7.03153L21.4782 6.80192L20.9239 7.03153ZM3.87868 20.1213L3.45442 20.5456L3.87868 20.1213ZM20.1213 20.1213L20.5456 20.5456L20.1213 20.1213ZM16.9685 3.07612L17.1981 2.52179L16.9685 3.07612ZM9 3.6H16.1716V2.4H9V3.6ZM15 20.4H9V21.6H15V20.4ZM3.6 15V9H2.4V15H3.6ZM17.1615 4.01005L19.99 6.83848L20.8385 5.98995L18.0101 3.16152L17.1615 4.01005ZM20.4 7.82843V15H21.6V7.82843H20.4ZM19.99 6.83848C20.3136 7.16213 20.3497 7.21327 20.3696 7.26114L21.4782 6.80192C21.3458 6.48225 21.0929 6.24436 20.8385 5.98995L19.99 6.83848ZM21.6 7.82843C21.6 7.46863 21.6106 7.12159 21.4782 6.80192L20.3696 7.26114C20.3894 7.30901 20.4 7.37072 20.4 7.82843H21.6ZM9 20.4C7.56882 20.4 6.5558 20.3987 5.78813 20.2955C5.03772 20.1946 4.61222 20.0063 4.30294 19.6971L3.45442 20.5456C4.02382 21.115 4.74476 21.366 5.62824 21.4848C6.49445 21.6013 7.60275 21.6 9 21.6V20.4ZM2.4 15C2.4 16.3973 2.39873 17.5055 2.51519 18.3718C2.63397 19.2552 2.88501 19.9762 3.45442 20.5456L4.30294 19.6971C3.99367 19.3878 3.80537 18.9623 3.70448 18.2119C3.60127 17.4442 3.6 16.4312 3.6 15H2.4ZM15 21.6C16.3973 21.6 17.5055 21.6013 18.3718 21.4848C19.2552 21.366 19.9762 21.115 20.5456 20.5456L19.6971 19.6971C19.3878 20.0063 18.9623 20.1946 18.2119 20.2955C17.4442 20.3987 16.4312 20.4 15 20.4V21.6ZM20.4 15C20.4 16.4312 20.3987 17.4442 20.2955 18.2119C20.1946 18.9623 20.0063 19.3878 19.6971 19.6971L20.5456 20.5456C21.115 19.9762 21.366 19.2552 21.4848 18.3718C21.6013 17.5055 21.6 16.3973 21.6 15H20.4ZM16.1716 3.6C16.6293 3.6 16.691 3.61062 16.7389 3.63045L17.1981 2.52179C16.8784 2.38938 16.5314 2.4 16.1716 2.4V3.6ZM18.0101 3.16152C17.7556 2.90711 17.5178 2.65421 17.1981 2.52179L16.7389 3.63045C16.7867 3.65028 16.8379 3.6864 17.1615 4.01005L18.0101 3.16152ZM9 2.4C7.60275 2.4 6.49445 2.39873 5.62824 2.51519C4.74476 2.63397 4.02382 2.88501 3.45442 3.45442L4.30294 4.30294C4.61222 3.99367 5.03772 3.80537 5.78813 3.70448C6.5558 3.60127 7.56882 3.6 9 3.6V2.4ZM3.6 9C3.6 7.56882 3.60127 6.5558 3.70448 5.78813C3.80537 5.03772 3.99367 4.61222 4.30294 4.30294L3.45442 3.45442C2.88501 4.02382 2.63397 4.74476 2.51519 5.62824C2.39873 6.49445 2.4 7.60275 2.4 9H3.6Z" fill="#1A1A1A"/>
</svg>
