<svg width="15" height="15" viewBox="0 0 15 15" fill="none" xmlns="http://www.w3.org/2000/svg">
<path d="M6.71831 1.53437C7.15581 1.16563 7.86206 1.16563 8.28706 1.53437L9.27456 2.37812C9.46206 2.53437 9.81831 2.66562 10.0683 2.66562H11.1308C11.7933 2.66562 12.3371 3.20937 12.3371 3.87187V4.93437C12.3371 5.18437 12.4683 5.53437 12.6246 5.72187L13.4683 6.70937C13.8371 7.14687 13.8371 7.85312 13.4683 8.27812L12.6246 9.26562C12.4683 9.45312 12.3371 9.80312 12.3371 10.0531V11.1156C12.3371 11.7781 11.7933 12.3219 11.1308 12.3219H10.0683C9.81831 12.3219 9.46831 12.4531 9.28081 12.6094L8.29331 13.4531C7.85581 13.8219 7.14956 13.8219 6.72456 13.4531L5.73706 12.6094C5.54956 12.4531 5.19331 12.3219 4.94956 12.3219H3.85581C3.19331 12.3219 2.64956 11.7781 2.64956 11.1156V10.0469C2.64956 9.80312 2.52456 9.44687 2.36831 9.26562L1.52456 8.27187C1.16206 7.84062 1.16206 7.14062 1.52456 6.70937L2.36831 5.71562C2.52456 5.52812 2.64956 5.17812 2.64956 4.93437V3.87812C2.64956 3.21562 3.19331 2.67187 3.85581 2.67187H4.93706C5.18706 2.67187 5.53706 2.54062 5.72456 2.38437L6.71831 1.53437Z" stroke="black" stroke-width="0.9375" stroke-linecap="round" stroke-linejoin="round"/>
<path d="M7.52856 4.35742V7.5832" stroke="black" stroke-width="0.900036" stroke-linecap="round" stroke-linejoin="round"/>
<path d="M7.66772 4.35742L7.49993 7.57883" stroke="black" stroke-width="0.900036" stroke-linecap="round" stroke-linejoin="round"/>
<path d="M7.5 4.35742L7.69915 7.57704" stroke="black" stroke-width="0.900036" stroke-linecap="round" stroke-linejoin="round"/>
<path d="M7.49634 9.78711H7.54603" stroke="black" stroke-width="1.25" stroke-linecap="round" stroke-linejoin="round"/>
</svg>
