<svg width="20" height="20" viewBox="0 0 20 20" fill="none" xmlns="http://www.w3.org/2000/svg">
<path d="M5.78342 17.1917C7.01675 17.9167 8.45842 18.3333 10.0001 18.3333C14.6001 18.3333 18.3334 14.6 18.3334 10C18.3334 5.40001 14.6001 1.66667 10.0001 1.66667C5.40008 1.66667 1.66675 5.40001 1.66675 10C1.66675 11.5167 2.0751 12.9417 2.78344 14.1667L1.66675 18.3333L5.78342 17.1917Z" stroke="#1A1A1A" stroke-width="1.5" stroke-miterlimit="10" stroke-linecap="round" stroke-linejoin="round"/>
<path d="M14.1666 12.6417C14.1666 12.7917 14.1332 12.95 14.0582 13.1C13.9832 13.25 13.8916 13.3917 13.7749 13.525C13.5666 13.75 13.3416 13.9167 13.0916 14.0167C12.8416 14.125 12.5666 14.175 12.2749 14.175C11.8499 14.175 11.3916 14.075 10.9166 13.8667C10.4332 13.6584 9.95826 13.3833 9.48326 13.0417C8.99992 12.6917 8.54991 12.3 8.11658 11.875C7.68324 11.4417 7.29994 10.9833 6.94994 10.5083C6.60827 10.0333 6.33324 9.55833 6.13324 9.08333C5.93324 8.60833 5.83325 8.15001 5.83325 7.71668C5.83325 7.43335 5.88325 7.15835 5.98325 6.90835C6.08325 6.65001 6.24159 6.41668 6.46659 6.20835C6.73326 5.94168 7.02491 5.81668 7.33324 5.81668C7.44991 5.81668 7.5666 5.84168 7.67494 5.89168C7.78327 5.94168 7.88324 6.01668 7.95824 6.12501L8.92494 7.49166C8.99994 7.6 9.05823 7.69167 9.09156 7.78334C9.13323 7.875 9.1499 7.95833 9.1499 8.04167C9.1499 8.14167 9.11658 8.24168 9.05825 8.34168C8.99991 8.44168 8.92494 8.54167 8.82494 8.64167L8.50827 8.975C8.45827 9.025 8.44159 9.07501 8.44159 9.14167C8.44159 9.17501 8.44994 9.20834 8.45827 9.24167C8.47494 9.275 8.48325 9.30001 8.49159 9.32501C8.56659 9.46667 8.6999 9.64166 8.88323 9.85833C9.0749 10.075 9.27493 10.3 9.4916 10.5167C9.7166 10.7417 9.93325 10.9417 10.1583 11.1333C10.3749 11.3167 10.5583 11.4417 10.6999 11.5167C10.7249 11.525 10.7499 11.5417 10.7749 11.55C10.8082 11.5667 10.8416 11.5667 10.8832 11.5667C10.9582 11.5667 11.0083 11.5417 11.0583 11.4917L11.3749 11.175C11.4833 11.0667 11.5833 10.9917 11.6749 10.9417C11.7749 10.8833 11.8666 10.85 11.9749 10.85C12.0582 10.85 12.1416 10.8667 12.2332 10.9083C12.3249 10.95 12.4249 11 12.5249 11.075L13.9083 12.0583C14.0166 12.1333 14.0916 12.225 14.1416 12.325C14.1416 12.425 14.1666 12.525 14.1666 12.6417Z" stroke="#1A1A1A" stroke-width="1.5" stroke-miterlimit="10"/>
</svg>
